<svg width="250" height="40" viewBox="0 0 250 40" fill="none" xmlns="http://www.w3.org/2000/svg">
<g clip-path="url(#clip0_65_1503)">
<rect width="250" height="40" rx="4" fill="white"/>
<path d="M27.7656 18.9766C27.8594 18.9062 28 18.9766 28 19.0938V23.875C28 24.5078 27.4844 25 26.875 25H17.125C16.4922 25 16 24.5078 16 23.875V19.0938C16 18.9766 16.1172 18.9062 16.2109 18.9766C16.75 19.3984 17.4297 19.9141 19.8203 21.6484C20.3125 22 21.1562 22.7734 22 22.7734C22.8203 22.7734 23.6875 22 24.1562 21.6484C26.5469 19.9141 27.2266 19.3984 27.7656 18.9766ZM22 22C21.4375 22.0234 20.6641 21.3203 20.2656 21.0391C17.1484 18.7891 16.9141 18.5781 16.2109 18.0156C16.0703 17.9219 16 17.7578 16 17.5703V17.125C16 16.5156 16.4922 16 17.125 16H26.875C27.4844 16 28 16.5156 28 17.125V17.5703C28 17.7578 27.9062 17.9219 27.7656 18.0156C27.0625 18.5781 26.8281 18.7891 23.7109 21.0391C23.3125 21.3203 22.5391 22.0234 22 22Z" fill="#667085"/>
<path d="M49.884 13.422H51.046V26.106H49.884V13.422ZM44.368 14.402C46.244 14.402 47.588 16.124 47.588 18.812C47.588 21.514 46.244 23.236 44.368 23.236C42.506 23.236 41.162 21.514 41.162 18.812C41.162 16.124 42.506 14.402 44.368 14.402ZM44.368 15.452C43.136 15.452 42.268 16.768 42.268 18.812C42.268 20.87 43.136 22.214 44.368 22.214C45.614 22.214 46.468 20.87 46.468 18.812C46.468 16.768 45.614 15.452 44.368 15.452ZM54.0269 14.892H58.8569V22.704H54.0269V14.892ZM57.7649 15.816H55.1189V21.78H57.7649V15.816ZM63.2109 13.436H64.3309V26.092H63.2109V13.436ZM58.2689 18.196H61.1809V19.162H58.2689V18.196ZM60.7049 13.702H61.8109V25.462H60.7049V13.702ZM69.9998 13.898C71.8898 13.898 73.2758 15.046 73.2758 16.712C73.2758 18.364 71.8898 19.512 69.9998 19.512C68.1238 19.512 66.7378 18.364 66.7378 16.712C66.7378 15.046 68.1238 13.898 69.9998 13.898ZM69.9998 14.85C68.7818 14.85 67.8578 15.62 67.8578 16.712C67.8578 17.804 68.7818 18.56 69.9998 18.56C71.2318 18.56 72.1418 17.804 72.1418 16.712C72.1418 15.62 71.2318 14.85 69.9998 14.85ZM75.6558 13.436H76.8318V19.918H75.6558V13.436ZM68.6418 20.534H76.8318V23.614H69.8038V25.518H68.6698V22.746H75.6838V21.472H68.6418V20.534ZM68.6698 25H77.2518V25.924H68.6698V25ZM85.0487 13.646C87.8347 13.646 89.5007 14.43 89.5007 15.844C89.5007 17.258 87.8347 18.042 85.0487 18.042C82.2487 18.042 80.5967 17.258 80.5967 15.844C80.5967 14.43 82.2487 13.646 85.0487 13.646ZM85.0487 14.528C82.9767 14.528 81.7867 15.004 81.7867 15.844C81.7867 16.684 82.9767 17.16 85.0487 17.16C87.1067 17.16 88.2967 16.684 88.2967 15.844C88.2967 15.004 87.1067 14.528 85.0487 14.528ZM79.3227 18.882H90.7607V19.82H79.3227V18.882ZM80.7087 20.898H89.3047V23.754H81.8847V25.294H80.7367V22.914H88.1567V21.794H80.7087V20.898ZM80.7367 25.042H89.6827V25.952H80.7367V25.042ZM105.351 13.436H106.527V20.226H105.351V13.436ZM98.3651 20.856H99.5131V22.396H105.379V20.856H106.527V25.924H98.3651V20.856ZM99.5131 23.32V24.986H105.379V23.32H99.5131ZM99.7371 14.038C101.655 14.038 103.027 15.228 103.027 16.95C103.027 18.686 101.655 19.876 99.7371 19.876C97.8191 19.876 96.4331 18.686 96.4331 16.95C96.4331 15.228 97.8191 14.038 99.7371 14.038ZM99.7371 15.004C98.4771 15.004 97.5671 15.802 97.5671 16.95C97.5671 18.098 98.4771 18.896 99.7371 18.896C100.997 18.896 101.907 18.098 101.907 16.95C101.907 15.802 100.997 15.004 99.7371 15.004ZM109.55 19.708H110.46C112.952 19.708 114.184 19.666 115.696 19.4L115.822 20.338C114.254 20.618 112.994 20.66 110.46 20.66H109.55V19.708ZM109.522 14.192H114.982V17.79H110.698V20.282H109.55V16.88H113.834V15.144H109.522V14.192ZM118.272 13.45H119.434V21.22H118.272V13.45ZM115.822 15.312H118.538V16.264H115.822V15.312ZM115.822 17.93H118.538V18.882H115.822V17.93ZM110.964 21.906H119.434V26.12H118.272V22.858H110.964V21.906ZM121.883 15.592H128.155V16.544H121.883V15.592ZM125.019 17.384C126.601 17.384 127.749 18.574 127.749 20.282C127.749 21.976 126.601 23.166 125.019 23.166C123.451 23.166 122.303 21.976 122.303 20.282C122.303 18.574 123.451 17.384 125.019 17.384ZM125.019 18.378C124.053 18.378 123.353 19.162 123.353 20.282C123.353 21.402 124.053 22.186 125.019 22.186C125.999 22.186 126.713 21.402 126.713 20.282C126.713 19.162 125.999 18.378 125.019 18.378ZM131.501 13.436H132.621V26.092H131.501V13.436ZM129.485 18.756H131.879V19.722H129.485V18.756ZM128.799 13.716H129.891V25.476H128.799V13.716ZM124.459 13.8H125.607V16.18H124.459V13.8ZM139.858 14.682H140.866V15.214C140.866 17.482 138.458 19.148 135.91 19.582L135.462 18.658C137.688 18.336 139.858 16.88 139.858 15.214V14.682ZM140.152 14.682H141.146V15.214C141.146 16.88 143.33 18.336 145.542 18.658L145.108 19.582C142.546 19.148 140.152 17.482 140.152 15.214V14.682ZM139.9 21.262H141.048V26.092H139.9V21.262ZM134.79 20.646H146.228V21.598H134.79V20.646ZM135.854 14.22H145.122V15.158H135.854V14.22ZM152.653 17.958H155.075V18.924H152.653V17.958ZM150.287 14.626H151.197V17.034C151.197 19.68 150.091 22.242 148.243 23.376L147.515 22.494C149.251 21.472 150.287 19.204 150.287 17.034V14.626ZM150.511 14.626H151.407V16.992C151.407 19.022 152.359 21.178 154.025 22.186L153.353 23.096C151.533 21.976 150.511 19.456 150.511 16.992V14.626ZM157.301 13.436H158.421V26.092H157.301V13.436ZM154.739 13.702H155.831V25.462H154.739V13.702ZM163.348 19.946H164.496V23.74H163.348V19.946ZM168.024 19.946H169.186V23.74H168.024V19.946ZM160.548 23.516H172.014V24.482H160.548V23.516ZM166.26 14.234C168.934 14.234 170.852 15.508 170.852 17.496C170.852 19.47 168.934 20.744 166.26 20.744C163.572 20.744 161.654 19.47 161.654 17.496C161.654 15.508 163.572 14.234 166.26 14.234ZM166.26 15.158C164.23 15.158 162.774 16.082 162.774 17.496C162.774 18.896 164.23 19.82 166.26 19.82C168.29 19.82 169.732 18.896 169.732 17.496C169.732 16.082 168.29 15.158 166.26 15.158ZM174.656 25.0795C174.41 25.0795 174.2 24.9917 174.024 24.8161C173.848 24.6404 173.761 24.4299 173.761 24.1847C173.761 23.9394 173.848 23.7289 174.024 23.5533C174.2 23.3776 174.41 23.2898 174.656 23.2898C174.901 23.2898 175.111 23.3776 175.287 23.5533C175.463 23.7289 175.55 23.9394 175.55 24.1847C175.55 24.3471 175.509 24.4962 175.426 24.6321C175.347 24.768 175.239 24.8774 175.103 24.9602C174.97 25.0398 174.821 25.0795 174.656 25.0795Z" fill="#667085"/>
</g>
<rect x="0.5" y="0.5" width="249" height="39" rx="3.5" stroke="#EAECF0"/>
<defs>
<clipPath id="clip0_65_1503">
<rect width="250" height="40" rx="4" fill="white"/>
</clipPath>
</defs>
</svg>
