<svg width="14" height="13" viewBox="0 0 14 13" fill="none" xmlns="http://www.w3.org/2000/svg">
<path d="M10.1641 0.5C12.1328 0.5 13.75 2.09375 13.75 4.0625V5.9375C13.75 6.26562 13.4922 6.5 13.1875 6.5H12.4375C12.1094 6.5 11.875 6.26562 11.875 5.9375V4.0625C11.875 3.14844 11.1016 2.375 10.1641 2.375C9.22656 2.39844 8.5 3.17188 8.5 4.08594V5.75H9.625C10.2344 5.75 10.75 6.26562 10.75 6.875V11.375C10.75 12.0078 10.2344 12.5 9.625 12.5H1.375C0.742188 12.5 0.25 12.0078 0.25 11.375V6.875C0.25 6.26562 0.742188 5.75 1.375 5.75H6.625V4.10938C6.625 2.14062 8.19531 0.523438 10.1641 0.5Z" fill="#667085"/>
</svg>
